HIERARCHY
ROOT hips
{
  OFFSET 0 10.680822821525009 1.3929502295107734
  CHANNELS 6 Xposition Yposition Zposition Yrotation Xrotation Zrotation
  JOINT spine
  {
    OFFSET -7.042017322922631e-31 0.6058489940359625 0
    CHANNELS 3 Yrotation Xrotation Zrotation
    JOINT chest
    {
      OFFSET 0 1.2699794144455032 0
      CHANNELS 3 Yrotation Xrotation Zrotation
      JOINT upperChest
      {
        OFFSET 0 1.217799211677689 0
        CHANNELS 3 Yrotation Xrotation Zrotation
        JOINT neck
        {
          OFFSET 0 1.5248826104153006 0
          CHANNELS 3 Yrotation Xrotation Zrotation
          JOINT head
          {
            OFFSET 0 0.8197772727844447 0
            CHANNELS 3 Yrotation Xrotation Zrotation
            JOINT leftEye
            {
              OFFSET 0.2793952361220866 0.6769952096623495 0.1830357412467788
              CHANNELS 3 Yrotation Xrotation Zrotation
              End Site
              {
                OFFSET 0.2793952361220866 0.6769952096623495 0.1830357412467788
              }
            }
            JOINT rightEye
            {
              OFFSET -0.27939522230689573 0.676995205357064 0.18303631459760622
              CHANNELS 3 Yrotation Xrotation Zrotation
              End Site
              {
                OFFSET -0.27939522230689573 0.676995205357064 0.18303631459760622
              }
            }
          }
        }
        JOINT leftShoulder
        {
          OFFSET 0.41486978509200423 1.1670505408695453 0
          CHANNELS 3 Yrotation Xrotation Zrotation
          JOINT leftUpperArm
          {
            OFFSET 0.9737926108153417 0 0
            CHANNELS 3 Yrotation Xrotation Zrotation
            JOINT leftLowerArm
            {
              OFFSET 2.5269332222665284 0 0
              CHANNELS 3 Yrotation Xrotation Zrotation
              JOINT leftHand
              {
                OFFSET 2.4263782738425914 0 0
                CHANNELS 3 Yrotation Xrotation Zrotation
                JOINT leftIndexProximal
                {
                  OFFSET 0.724320348022514 0.08170607082582437 0.20360061616140124
                  CHANNELS 3 Yrotation Xrotation Zrotation
                  JOINT leftIndexIntermediate
                  {
                    OFFSET 0.36548960630744587 -0.010566596513783999 -0.01414783573280308
                    CHANNELS 3 Yrotation Xrotation Zrotation
                    JOINT leftIndexDistal
                    {
                      OFFSET 0.22502819650693362 -0.007863819831430696 -0.007567681939621526
                      CHANNELS 3 Yrotation Xrotation Zrotation
                      End Site
                      {
                        OFFSET 0.22502819650693362 -0.007863819831430696 -0.007567681939621526
                      }
                    }
                  }
                }
                JOINT leftLittleProximal
                {
                  OFFSET 0.6720322998298205 0.08170601055037707 -0.3230036039466837
                  CHANNELS 3 Yrotation Xrotation Zrotation
                  JOINT leftLittleIntermediate
                  {
                    OFFSET 0.34583592281688713 5.476543019078406e-8 1.3869203337180114e-7
                    CHANNELS 3 Yrotation Xrotation Zrotation
                    JOINT leftLittleDistal
                    {
                      OFFSET 0.19925728062053938 0.003098047439490381 0.0038303983709246925
                      CHANNELS 3 Yrotation Xrotation Zrotation
                      End Site
                      {
                        OFFSET 0.19925728062053938 0.003098047439490381 0.0038303983709246925
                      }
                    }
                  }
                }
                JOINT leftMiddleProximal
                {
                  OFFSET 0.7300436596551069 0.0817073395107144 0.022661722987926763
                  CHANNELS 3 Yrotation Xrotation Zrotation
                  JOINT leftMiddleIntermediate
                  {
                    OFFSET 0.40758254347686607 -0.0000012383587111308714 2.408460318820138e-7
                    CHANNELS 3 Yrotation Xrotation Zrotation
                    JOINT leftMiddleDistal
                    {
                      OFFSET 0.2514490105498507 0.0000013869132886590307 9.738618134136345e-8
                      CHANNELS 3 Yrotation Xrotation Zrotation
                      End Site
                      {
                        OFFSET 0.2514490105498507 0.0000013869132886590307 9.738618134136345e-8
                      }
                    }
                  }
                }
                JOINT leftRingProximal
                {
                  OFFSET 0.7217261161191838 0.08170601902187746 -0.15043395722184966
                  CHANNELS 3 Yrotation Xrotation Zrotation
                  JOINT leftRingIntermediate
                  {
                    OFFSET 0.37808807487521556 0.0000013754022405443322 2.2046919317952884e-7
                    CHANNELS 3 Yrotation Xrotation Zrotation
                    JOINT leftRingDistal
                    {
                      OFFSET 0.21812105442344254 -0.002713483731960231 -0.004991354517454624
                      CHANNELS 3 Yrotation Xrotation Zrotation
                      End Site
                      {
                        OFFSET 0.21812105442344254 -0.002713483731960231 -0.004991354517454624
                      }
                    }
                  }
                }
                JOINT leftThumbProximal
                {
                  OFFSET 0.10793587079521427 -0.1652791240518252 -0.07775251827190094
                  CHANNELS 3 Yrotation Xrotation Zrotation
                  JOINT leftThumbIntermediate
                  {
                    OFFSET 0.40355819082296684 -0.017484006740276614 0.3177776014416309
                    CHANNELS 3 Yrotation Xrotation Zrotation
                    JOINT leftThumbDistal
                    {
                      OFFSET 0.2318764658022603 -0.018510186824293617 0.21396001800186287
                      CHANNELS 3 Yrotation Xrotation Zrotation
                      End Site
                      {
                        OFFSET 0.2318764658022603 -0.018510186824293617 0.21396001800186287
                      }
                    }
                  }
                }
              }
            }
          }
        }
        JOINT rightShoulder
        {
          OFFSET -0.4148697850920044 1.1670505408695453 0
          CHANNELS 3 Yrotation Xrotation Zrotation
          JOINT rightUpperArm
          {
            OFFSET -0.9737926108153414 0 0
            CHANNELS 3 Yrotation Xrotation Zrotation
            JOINT rightLowerArm
            {
              OFFSET -2.5269332222665293 0 0
              CHANNELS 3 Yrotation Xrotation Zrotation
              JOINT rightHand
              {
                OFFSET -2.42637827384259 0 0
                CHANNELS 3 Yrotation Xrotation Zrotation
                JOINT rightIndexProximal
                {
                  OFFSET -0.724320348022514 0.08170607082582437 0.20360061616140124
                  CHANNELS 3 Yrotation Xrotation Zrotation
                  JOINT rightIndexIntermediate
                  {
                    OFFSET -0.36548960630744587 -0.010566596513783999 -0.01414783573280308
                    CHANNELS 3 Yrotation Xrotation Zrotation
                    JOINT rightIndexDistal
                    {
                      OFFSET -0.22502819650693362 -0.007863819831430696 -0.007567681939621526
                      CHANNELS 3 Yrotation Xrotation Zrotation
                      End Site
                      {
                        OFFSET -0.22502819650693362 -0.007863819831430696 -0.007567681939621526
                      }
                    }
                  }
                }
                JOINT rightLittleProximal
                {
                  OFFSET -0.6720322998298205 0.08170601055037707 -0.3230036039466837
                  CHANNELS 3 Yrotation Xrotation Zrotation
                  JOINT rightLittleIntermediate
                  {
                    OFFSET -0.34583592281688713 5.476543019078406e-8 1.3869203337180114e-7
                    CHANNELS 3 Yrotation Xrotation Zrotation
                    JOINT rightLittleDistal
                    {
                      OFFSET -0.19925728062053938 0.003098047439490381 0.0038303983709246925
                      CHANNELS 3 Yrotation Xrotation Zrotation
                      End Site
                      {
                        OFFSET -0.19925728062053938 0.003098047439490381 0.0038303983709246925
                      }
                    }
                  }
                }
                JOINT rightMiddleProximal
                {
                  OFFSET -0.7300436596551069 0.0817073395107144 0.022661722987926763
                  CHANNELS 3 Yrotation Xrotation Zrotation
                  JOINT rightMiddleIntermediate
                  {
                    OFFSET -0.40758254347686607 -0.0000012383587111308714 2.408460318820138e-7
                    CHANNELS 3 Yrotation Xrotation Zrotation
                    JOINT rightMiddleDistal
                    {
                      OFFSET -0.2514490105498507 0.0000013869132886590307 9.738618134136345e-8
                      CHANNELS 3 Yrotation Xrotation Zrotation
                      End Site
                      {
                        OFFSET -0.2514490105498507 0.0000013869132886590307 9.738618134136345e-8
                      }
                    }
                  }
                }
                JOINT rightRingProximal
                {
                  OFFSET -0.7217261161191838 0.08170601902187746 -0.15043395722184966
                  CHANNELS 3 Yrotation Xrotation Zrotation
                  JOINT rightRingIntermediate
                  {
                    OFFSET -0.37808807487521556 0.0000013754022405443322 2.2046919317952884e-7
                    CHANNELS 3 Yrotation Xrotation Zrotation
                    JOINT rightRingDistal
                    {
                      OFFSET -0.21812105442344254 -0.002713483731960231 -0.004991354517454624
                      CHANNELS 3 Yrotation Xrotation Zrotation
                      End Site
                      {
                        OFFSET -0.21812105442344254 -0.002713483731960231 -0.004991354517454624
                      }
                    }
                  }
                }
                JOINT rightThumbProximal
                {
                  OFFSET -0.10793587079521427 -0.1652791240518252 -0.07775251827190094
                  CHANNELS 3 Yrotation Xrotation Zrotation
                  JOINT rightThumbIntermediate
                  {
                    OFFSET -0.40355819082296684 -0.017484006740276614 0.3177776014416309
                    CHANNELS 3 Yrotation Xrotation Zrotation
                    JOINT rightThumbDistal
                    {
                      OFFSET -0.2318764658022603 -0.018510186824293617 0.21396001800186287
                      CHANNELS 3 Yrotation Xrotation Zrotation
                      End Site
                      {
                        OFFSET -0.2318764658022603 -0.018510186824293617 0.21396001800186287
                      }
                    }
                  }
                }
              }
            }
          }
        }
      }
    }
  }
  JOINT leftUpperLeg
  {
    OFFSET 0.8486251390888677 -0.4421577294694363 0
    CHANNELS 3 Yrotation Xrotation Zrotation
    JOINT leftLowerLeg
    {
      OFFSET 0 -4.10147812638609 0
      CHANNELS 3 Yrotation Xrotation Zrotation
      JOINT leftFoot
      {
        OFFSET -0.0002543926476658853 -4.77292286812444 0.007402811231737388
        CHANNELS 3 Yrotation Xrotation Zrotation
        JOINT leftToes
        {
          OFFSET 0 -0.7027875951174846 1.2062924140498823
          CHANNELS 3 Yrotation Xrotation Zrotation
          End Site
          {
            OFFSET 0 -0.7027875951174846 1.2062924140498823
          }
        }
      }
    }
  }
  JOINT rightUpperLeg
  {
    OFFSET -0.8486251390888677 -0.4421577294694363 0
    CHANNELS 3 Yrotation Xrotation Zrotation
    JOINT rightLowerLeg
    {
      OFFSET 0 -4.10147812638609 0
      CHANNELS 3 Yrotation Xrotation Zrotation
      JOINT rightFoot
      {
        OFFSET 0.0002543926476658853 -4.77292286812444 0.007402811231737388
        CHANNELS 3 Yrotation Xrotation Zrotation
        JOINT rightToes
        {
          OFFSET 0 -0.7027875951174846 1.2062924140498823
          CHANNELS 3 Yrotation Xrotation Zrotation
          End Site
          {
            OFFSET 0 -0.7027875951174846 1.2062924140498823
          }
        }
      }
    }
  }
}
MOTION
Frames: 4
Frame Time: 0.03333333333333333
-0.044130515307188034 -0.3749203404459074 0.03599870949983597 -10.560968549881979 -6.023542143918891 1.0914116089813122 1.6444220480736458 2.9828368337576245 2.470392419251313 7.60988925207809 12.086566025331946 -0.45015746308311566 0 0 0 0.2409430883435263 3.3641611697206324 -1.4690081451402834 0.38290988507819224 -20.42980390267917 0.2806464394365126 0 0 0 0 0 0 5.615355633071894 0.2294747191590241 -7.432736227178534 -23.51838952549673 -18.287059312152856 -57.19049674974117 -13.25034083838892 -1.8484759176814127 0.3865561617803223 -16.671753909349306 39.5765487692281 -14.769754092939612 -1.8405543189332018e-10 4.4505883324280764e-9 4.56394454989163e-13 0.00002301021493846689 0.000013209564789253233 -0.0002772734918249327 -5.269914485035549e-7 -0.0000021140368367901977 -0.000005204036393807067 4.060507479550178 -0.016204188797414587 0.4574263722199111 -4.060523902353687 -0.016216776956620663 -0.45743048087472066 -3.6886905295934835e-7 0.000001608918444497629 -0.00000822643578006871 -0.001722692602808456 0.00000886080509550681 0.016013952675776117 0.0017171940378961027 -0.000002747248124990905 -0.016016602375578382 4.679385222882585e-7 -0.0000032798107857411373 -0.0000030263984376070923 -2.499399605396151e-11 -6.108701537329427e-10 -2.3935504582910804e-12 -0.000013521977698949925 0.000011670643686851967 -0.00001943771658516375 0 0 0 3.770509731881894 -1.5392603839765315 5.992960461674964 7.9763504815005595 3.9081238178320317 1.1905752541060188 1.607743164206167 -0.5796750238712397 2.50190622473609 -6.483720725866822 -0.087752290390817 10.257453100390686 11.555500123355325 -19.135391247209732 51.141277593278666 21.647609218988638 -2.9525927486590517 -0.8473479440562226 8.99815867195011 44.41272547061091 26.906226543500473 -0.0000016572416041061643 -0.000002572912813791282 -0.00001106931550011103 0.000005299363469831142 -0.000001201351480951164 0.000020403427843318778 0.000007362642317904149 -5.508887114915745e-7 -0.000002774989075589251 0.0000018921790515397681 -0.000007700728461434548 -0.000006895048465965619 2.8607590523370694e-9 6.361110121230362e-15 -3.673552149328957e-11 0.000006982705977875249 -0.0000027910029902993614 -0.000002939491434824536 -0.000001656693327367955 -0.000002539140717294879 -0.000011069322013887018 8.192375041873911e-7 0.000009251009589158235 0.00008051599030246096 -7.628104439171111e-7 3.1011041710761833e-7 0.000001419820983132773 -0.0000016581221851974929 -0.000002589318979949144 -0.000011069301658337056 -0.0000031154918300109986 0.0000012404460448737153 3.398513259341096e-7 0.000008333405009337687 -5.313439230851693e-7 -0.0000018270241930014277 -3.668299077725481 -1.8488340486803725 -6.421066820097895 -8.664348386635949 4.592889781800913 -0.8121043581341184 0.11027288786642066 -1.2742513239792161 -2.0989195643359144 6.434846994675927 -5.480443759937438 7.529092488758184 0.7057178886109019 25.673637182981558 1.373521271691787 0.6571541721834125 -13.830206627046357 -6.11161285424589 -5.395481072611985e-7 -0.6223694712132976 0.000003877580022307056 -8.527502523271906 -11.116686757506672 -8.948348535021445 0.2110740293749718 26.47976122857071 -1.7252424237515351 -0.6334044060294154 -9.374570648470112 8.736186019650807 0.000004759441463547883 -0.00817311344479862 -6.148190946442076e-8
-0.043385159224271774 -0.3777470311197355 0.025807710364460945 -10.487211826645387 -6.053274144383296 1.1234465500631627 1.6263833788153883 2.9771271856381074 2.4551408285975973 7.526224221497338 12.060596940053111 -0.44531379689488265 0 0 0 0.25526547658761245 3.380285711471779 -1.4769605730949757 0.4589653902692152 -20.310536828616215 0.25189707171903425 0 0 0 0 0 0 5.6194675973745385 0.22949440947167773 -7.443389771821494 -23.4899592400649 -18.238337475641938 -57.18390330844474 -13.281837144253233 -1.8527435967333201 0.38796826600211254 -16.634103028300824 39.54139537922788 -14.802570659985196 -1.8405543189332018e-10 4.4505883324280764e-9 4.56394454989163e-13 0.00002301021493846689 0.000013209564789253233 -0.0002772734918249327 -5.269914485035549e-7 -0.0000021140368367901977 -0.000005204036393807067 4.060507479550178 -0.016204188797414587 0.4574263722199111 -4.060523902353687 -0.016216776956620663 -0.45743048087472066 -3.6886905295934835e-7 0.000001608918444497629 -0.00000822643578006871 -0.001722692602808456 0.00000886080509550681 0.016013952675776117 0.0017171940378961027 -0.000002747248124990905 -0.016016602375578382 4.679385222882585e-7 -0.0000032798107857411373 -0.0000030263984376070923 -2.499399605396151e-11 -6.108701537329427e-10 -2.3935504582910804e-12 -0.000013521977698949925 0.000011670643686851967 -0.00001943771658516375 0 0 0 3.770509731881894 -1.5392603839765315 5.992960461674964 7.976346244078215 3.908128524531941 1.190591617051976 1.6077493519450385 -0.5796787059585352 2.5018989742068065 -6.481171847919915 -0.08673933347590296 10.257454172517212 11.546886545631876 -19.01369047107943 51.11852276356218 21.764713027496406 -2.967442823159395 -0.8549243389068697 8.836435709366787 44.074371617787705 26.814171711269815 -0.0000016572416041061643 -0.000002572912813791282 -0.00001106931550011103 0.000005299363469831142 -0.000001201351480951164 0.000020403427843318778 0.000007362642317904149 -5.508887114915745e-7 -0.000002774989075589251 0.0000018921790515397681 -0.000007700728461434548 -0.000006895048465965619 2.8607590523370694e-9 6.361110121230362e-15 -3.673552149328957e-11 0.000006982705977875249 -0.0000027910029902993614 -0.000002939491434824536 -0.000001656693327367955 -0.000002539140717294879 -0.000011069322013887018 8.192375041873911e-7 0.000009251009589158235 0.00008051599030246096 -7.628104439171111e-7 3.1011041710761833e-7 0.000001419820983132773 -0.0000016581221851974929 -0.000002589318979949144 -0.000011069301658337056 -0.0000031154918300109986 0.0000012404460448737153 3.398513259341096e-7 0.000008333405009337687 -5.313439230851693e-7 -0.0000018270241930014277 -3.668299077725481 -1.8488340486803725 -6.421066820097895 -8.664348056013383 4.592895777469614 -0.8121177350113483 0.11027546315966305 -1.274249295765238 -2.098923404689316 6.377294674450826 -5.566131026054003 7.473436098313165 0.6983650857521149 25.775336620782493 1.414055555546091 0.6667365088431422 -13.813977720137798 -6.206534951572447 -5.33994369902566e-7 -0.5925532723437736 -2.069979400580105e-7 -8.559804249186673 -11.21551904039615 -9.011904157848967 0.22251469892281503 26.62939207915861 -1.6747213329327522 -0.6347740046305138 -9.401216929814487 8.70647140703026 -0.000007597145581457074 -0.00820986823389272 9.519812361507024e-7
-0.04216212034225464 -0.3842005452188566 0.0023259164299815893 -10.334758254946271 -6.079424392034983 1.1699446431488145 1.586086469439961 2.9552342054633964 2.446477248776508 7.34077631790413 11.966432040604026 -0.4187678920791409 0 0 0 0.2847758189384882 3.393802147097422 -1.5018924945575143 0.6125143772635827 -20.176510879901283 0.19400078153338185 0 0 0 0 0 0 5.629777916479874 0.2299665234125982 -7.477924288823648 -23.36793294169446 -18.14997315666739 -57.19538811371997 -13.301555296331294 -1.8553946711524738 0.3888800304923266 -16.875383844843082 39.98626792505775 -14.937881887125581 -1.8405543189332018e-10 4.4505883324280764e-9 4.56394454989163e-13 0.00002301021493846689 0.000013209564789253233 -0.0002772734918249327 -5.269914485035549e-7 -0.0000021140368367901977 -0.000005204036393807067 4.060507479550178 -0.016204188797414587 0.4574263722199111 -4.060523902353687 -0.016216776956620663 -0.45743048087472066 -3.6886905295934835e-7 0.000001608918444497629 -0.00000822643578006871 -0.001722692602808456 0.00000886080509550681 0.016013952675776117 0.0017171940378961027 -0.000002747248124990905 -0.016016602375578382 4.679385222882585e-7 -0.0000032798107857411373 -0.0000030263984376070923 -2.499399605396151e-11 -6.108701537329427e-10 -2.3935504582910804e-12 -0.000013521977698949925 0.000011670643686851967 -0.00001943771658516375 0 0 0 3.770509731881894 -1.5392603839765315 5.992960461674964 7.976343701624765 3.908113548668685 1.190567340001369 1.6077460447053018 -0.5796776386868551 2.501912195760146 -6.474600299543644 -0.0838521346089316 10.257375520233916 11.437590869212263 -18.771561554226288 51.118085471153236 21.942346962221638 -2.989984301723585 -0.8664064360045725 8.5421132610001 43.5886969372186 26.67948083703868 -0.0000016572416041061643 -0.000002572912813791282 -0.00001106931550011103 0.000005299363469831142 -0.000001201351480951164 0.000020403427843318778 0.000007362642317904149 -5.508887114915745e-7 -0.000002774989075589251 0.0000018921790515397681 -0.000007700728461434548 -0.000006895048465965619 2.8607590523370694e-9 6.361110121230362e-15 -3.673552149328957e-11 0.000006982705977875249 -0.0000027910029902993614 -0.000002939491434824536 -0.000001656693327367955 -0.000002539140717294879 -0.000011069322013887018 8.192375041873911e-7 0.000009251009589158235 0.00008051599030246096 -7.628104439171111e-7 3.1011041710761833e-7 0.000001419820983132773 -0.0000016581221851974929 -0.000002589318979949144 -0.000011069301658337056 -0.0000031154918300109986 0.0000012404460448737153 3.398513259341096e-7 0.000008333405009337687 -5.313439230851693e-7 -0.0000018270241930014277 -3.668299077725481 -1.8488340486803725 -6.421066820097895 -8.664336532145905 4.5928974905178235 -0.8120965916960424 0.11027270772932854 -1.2742443853524554 -2.098935992514222 6.277695341358133 -5.812859945189331 7.4113437583067 0.672215977010424 26.002612594293335 1.4662333913646324 0.6882619740507316 -13.76354413537104 -6.427429436341677 -0.0000015693089352183639 -0.5225389132730137 0.0000031665688318506523 -8.581663551594264 -11.467613823831602 -9.082978718032962 0.23289310459565393 26.95474821325625 -1.6102719866891548 -0.6367786346781776 -9.455309347213849 8.650317352823086 0.000012347617982580843 -0.008237897689688956 -0.0000018671911890736934
-0.04069768264889717 -0.3916010579141691 -0.02842387743294239 -10.473310140666225 -6.64725022226898 1.3820485285143334 1.567256982185032 3.061176848428525 2.4882779741089274 7.351280100046308 12.386991977495938 -0.4313811490891251 0 0 0 0.3143689674706092 3.3849257308513483 -1.5534584311934254 0.7637802939633864 -20.369117884892653 0.1287329434510843 0 0 0 0 0 0 5.638625155684488 0.23029888416579 -7.505847313684597 -23.301200923303945 -18.070362754470853 -57.18303757922817 -13.310753460416485 -1.8566388451954248 0.38932646588862835 -17.012702443344956 40.272530382970906 -15.047797183489198 -1.8405543189332018e-10 4.4505883324280764e-9 4.56394454989163e-13 0.00002301021493846689 0.000013209564789253233 -0.0002772734918249327 -5.269914485035549e-7 -0.0000021140368367901977 -0.000005204036393807067 4.060507479550178 -0.016204188797414587 0.4574263722199111 -4.060523902353687 -0.016216776956620663 -0.45743048087472066 -3.6886905295934835e-7 0.000001608918444497629 -0.00000822643578006871 -0.001722692602808456 0.00000886080509550681 0.016013952675776117 0.0017171940378961027 -0.000002747248124990905 -0.016016602375578382 4.679385222882585e-7 -0.0000032798107857411373 -0.0000030263984376070923 -2.499399605396151e-11 -6.108701537329427e-10 -2.3935504582910804e-12 -0.000013521977698949925 0.000011670643686851967 -0.00001943771658516375 0 0 0 3.770509731881894 -1.5392603839765315 5.992960461674964 7.976345396593735 3.9081276687683193 1.1905918309466932 1.607730682043157 -0.5796784391406151 2.5018930031826305 -6.472744881066993 -0.08270658927908763 10.25737827262388 11.34047320008573 -18.57766018166521 51.097905943268884 22.085744133991895 -3.0081689733809176 -0.875737258789337 8.30757805524665 43.279226702334284 26.64208620569047 -0.0000016572416041061643 -0.000002572912813791282 -0.00001106931550011103 0.000005299363469831142 -0.000001201351480951164 0.000020403427843318778 0.000007362642317904149 -5.508887114915745e-7 -0.000002774989075589251 0.0000018921790515397681 -0.000007700728461434548 -0.000006895048465965619 2.8607590523370694e-9 6.361110121230362e-15 -3.673552149328957e-11 0.000006982705977875249 -0.0000027910029902993614 -0.000002939491434824536 -0.000001656693327367955 -0.000002539140717294879 -0.000011069322013887018 8.192375041873911e-7 0.000009251009589158235 0.00008051599030246096 -7.628104439171111e-7 3.1011041710761833e-7 0.000001419820983132773 -0.0000016581221851974929 -0.000002589318979949144 -0.000011069301658337056 -0.0000031154918300109986 0.0000012404460448737153 3.398513259341096e-7 0.000008333405009337687 -5.313439230851693e-7 -0.0000018270241930014277 -3.668299077725481 -1.8488340486803725 -6.421066820097895 -8.664330604900604 4.592884214394307 -0.812105428681666 0.11027233411165602 -1.2742472675512615 -2.09892425810118 6.2838045220505965 -5.451061590435984 7.306684603608678 0.6482280122954699 26.227150269542786 1.4090538261895618 0.6958144977824993 -13.758862554854288 -6.494979146765242 -0.0000019073271067805351 -0.4998402238820077 -3.249606283612578e-8 -8.681615000043145 -11.39759131519766 -9.330558065520622 0.18767623981243187 27.451652301820754 -1.6871962686254307 -0.6350210627922538 -9.493837235281829 8.630019165012818 -0.0000031230718297056123 -0.008136359489471218 0.0000034557161205092737
